<svg width="35" height="35" viewBox="0 0 35 35" fill="none" xmlns="http://www.w3.org/2000/svg">
<path d="M20.5954 17.5004L34.3587 3.73648C35.2138 2.88207 35.2138 1.49576 34.3587 0.641352C33.5036 -0.213784 32.1188 -0.213784 31.2637 0.641352L17.5004 14.4052L3.73632 0.641352C2.88122 -0.213784 1.49642 -0.213784 0.641325 0.641352C-0.213775 1.49576 -0.213775 2.88207 0.641325 3.73648L14.4054 17.5004L0.641325 31.2643C-0.213775 32.1187 -0.213775 33.505 0.641325 34.3594C1.06888 34.7862 1.62921 35 2.18882 35C2.74843 35 3.30877 34.7862 3.73632 34.3586L17.5004 20.5948L31.2637 34.3586C31.6912 34.7862 32.2516 35 32.8112 35C33.3708 35 33.9311 34.7862 34.3587 34.3586C35.2138 33.5042 35.2138 32.1179 34.3587 31.2635L20.5954 17.5004Z" fill="white"/>
</svg>
