<svg width="15" height="15" viewBox="0 0 15 15" fill="none" xmlns="http://www.w3.org/2000/svg">
<path d="M14.4141 10.3125C14.7377 10.3125 15 10.0502 15 9.72656V2.34375C15 1.05137 13.9486 0 12.6562 0H2.34375C1.05137 0 0 1.05137 0 2.34375V12.6562C0 13.9486 1.05137 15 2.34375 15H12.6562C13.9486 15 15 13.9486 15 12.6562C15 12.3326 14.7377 12.0703 14.4141 12.0703C14.0904 12.0703 13.8281 12.3326 13.8281 12.6562C13.8281 13.3024 13.3024 13.8281 12.6562 13.8281H9.78516V9.55078H11.1413C11.4378 9.55078 11.6876 9.32922 11.7231 9.03488L11.8007 8.39035C11.8426 8.04153 11.5703 7.73438 11.2189 7.73438H9.78516V5.77148C9.78516 5.28603 10.1786 4.89258 10.6641 4.89258H11.3965C11.7201 4.89258 11.9824 4.63028 11.9824 4.30664V3.71395C11.9824 3.41377 11.7557 3.16154 11.457 3.1311C11.1599 3.10089 10.8456 3.07617 10.6641 3.07617C9.98074 3.07617 9.29581 3.36445 8.78494 3.86696C8.25863 4.38469 7.96875 5.06287 7.96875 5.77663V7.73438H6.65039C6.32675 7.73438 6.06445 7.99667 6.06445 8.32031V8.96484C6.06445 9.28848 6.32675 9.55078 6.65039 9.55078H7.96875V13.8281H2.34375C1.69762 13.8281 1.17188 13.3024 1.17188 12.6562V2.34375C1.17188 1.69762 1.69762 1.17188 2.34375 1.17188H12.6562C13.3024 1.17188 13.8281 1.69762 13.8281 2.34375V9.72656C13.8281 10.0502 14.0904 10.3125 14.4141 10.3125Z" fill="white"/>
</svg>
