<svg width="15" height="15" viewBox="0 0 15 15" fill="none" xmlns="http://www.w3.org/2000/svg">
<g clip-path="url(#clip0)">
<path d="M7.64763 15C7.59796 15 7.54829 15 7.49828 14.9998C6.32252 15.0026 5.23613 14.9728 4.17961 14.9084C3.21098 14.8495 2.32681 14.5148 1.62254 13.9405C0.942993 13.3864 0.478935 12.6371 0.243301 11.7138C0.0382233 10.91 0.0273514 10.1209 0.0169373 9.3577C0.00938414 8.81009 0.00160217 8.16121 0 7.50135C0.00160217 6.83873 0.00938414 6.18985 0.0169373 5.64225C0.0273514 4.87916 0.0382233 4.09008 0.243301 3.28614C0.478935 2.36282 0.942993 1.61358 1.62254 1.05945C2.32681 0.485188 3.21098 0.150448 4.17973 0.0915108C5.23624 0.0273094 6.32286 -0.00267423 7.50114 0.000186801C8.67725 -0.0023309 9.7633 0.0273094 10.8198 0.0915108C11.7884 0.150448 12.6726 0.485188 13.3769 1.05945C14.0565 1.61358 14.5205 2.36282 14.7561 3.28614C14.9612 4.08997 14.9721 4.87916 14.9825 5.64225C14.99 6.18985 14.9979 6.83873 14.9994 7.4986C14.9979 8.16121 14.99 8.81009 14.9825 9.3577C14.9781 9.68134 14.7108 9.93997 14.3887 9.93562C14.065 9.93116 13.8064 9.6652 13.8107 9.34167C13.8182 8.79728 13.8261 8.15263 13.8276 7.4986C13.8261 6.84731 13.8182 6.20267 13.8107 5.65827C13.8012 4.9635 13.7914 4.24504 13.6206 3.5759C13.4484 2.90093 13.1172 2.35985 12.6363 1.96766C12.1162 1.54343 11.4811 1.30573 10.7486 1.26121C9.71695 1.1985 8.65494 1.16955 7.50114 1.17195C6.3446 1.1692 5.28248 1.1985 4.25079 1.26121C3.51837 1.30573 2.88334 1.54343 2.36309 1.96754C1.88221 2.35973 1.55102 2.90081 1.37878 3.5759C1.20804 4.24504 1.1982 4.9635 1.1887 5.65827C1.18126 6.20267 1.17348 6.84731 1.17188 7.50135C1.17348 8.15263 1.18126 8.79728 1.1887 9.34167C1.1982 10.0364 1.20804 10.7549 1.37878 11.424C1.55102 12.099 1.88221 12.6401 2.36309 13.0323C2.88334 13.4565 3.51837 13.6942 4.25079 13.7387C5.28248 13.8014 6.34483 13.8307 7.4984 13.8279C8.65505 13.8306 9.71695 13.8014 10.7486 13.7387C11.4811 13.6942 12.1161 13.4565 12.6363 13.0323C12.9827 12.7497 13.2534 12.3872 13.4407 11.9546C13.5694 11.6577 13.9143 11.5212 14.2113 11.6498C14.5082 11.7785 14.6447 12.1234 14.5161 12.4204C14.2535 13.0268 13.8702 13.5382 13.3769 13.9405C12.6726 14.5149 11.7884 14.8495 10.8198 14.9084C9.80804 14.97 8.76869 15 7.64763 15ZM11.1325 7.49997C11.1325 5.48066 9.48967 3.83786 7.47036 3.83786C5.45116 3.83786 3.80825 5.48066 3.80825 7.49997C3.80825 9.51929 5.45116 11.1621 7.47036 11.1621C9.48967 11.1621 11.1325 9.51929 11.1325 7.49997ZM9.96059 7.49997C9.96059 8.87304 8.84354 9.99021 7.47036 9.99021C6.0973 9.99021 4.98013 8.87304 4.98013 7.49997C4.98013 6.12691 6.0973 5.00973 7.47036 5.00973C8.84354 5.00973 9.96059 6.12691 9.96059 7.49997ZM11.5426 2.66598C11.0573 2.66598 10.6637 3.05943 10.6637 3.54489C10.6637 4.03035 11.0573 4.42379 11.5426 4.42379C12.0281 4.42379 12.4215 4.03035 12.4215 3.54489C12.4215 3.05943 12.0281 2.66598 11.5426 2.66598Z" fill="white"/>
</g>
<defs>
<clipPath id="clip0">
<rect width="15" height="15" fill="white"/>
</clipPath>
</defs>
</svg>
