<svg width="60" height="66" viewBox="0 0 60 66" fill="none" xmlns="http://www.w3.org/2000/svg">
<path d="M0 5C0 2.23858 2.23858 0 5 0H55C57.7614 0 60 2.23858 60 5V55C60 57.7614 57.7614 60 55 60H23.7773C22.5394 60 21.3701 60.5687 20.6059 61.5425C19.0126 63.5727 15.9486 63.6038 14.3143 61.6064L14.2385 61.5138C13.4546 60.5557 12.2821 60 11.0441 60H5C2.23858 60 0 57.7614 0 55V5Z" fill="black"/>
<g clip-path="url(#clip0)">
<path d="M39.5599 35.7796C40.9319 34.0068 41.9804 31.6819 42.4155 29.3089C42.6936 27.7856 42.5458 26.1336 41.988 24.5296C41.1133 22.0102 39.2792 20.4331 37.5076 18.9094C36.1853 17.7724 34.9356 16.6986 34.1315 15.2829L33.987 15.0304C33.511 14.1989 32.9737 13.2568 32.9595 12.5183C32.9463 11.7713 32.3424 11.1681 31.6082 11.1226C30.8616 11.0843 30.2141 11.6284 30.1245 12.3716L27.09 37.5509C25.9925 36.6904 24.5874 36.0738 22.9907 35.8814C19.0966 35.4121 15.6203 37.5649 15.2447 40.6819C14.869 43.7989 17.7343 46.7159 21.6285 47.1852C25.5226 47.6546 28.9988 45.5018 29.3745 42.3847L31.3593 25.9151C33.3839 26.9819 36.608 29.4662 36.9818 34.4052C36.7721 34.6466 36.5685 34.9088 36.3435 35.111C35.7558 35.6336 35.7047 36.5335 36.2305 37.1186C36.75 37.7087 37.6505 37.7542 38.2382 37.2315C38.6686 36.8476 39.0655 36.3851 39.451 35.8983C39.4897 35.8629 39.526 35.8242 39.5599 35.7796Z" fill="url(#paint0_linear)"/>
</g>
<defs>
<linearGradient id="paint0_linear" x1="27.0682" y1="38.9675" x2="15.0627" y2="35.6302" gradientUnits="userSpaceOnUse">
<stop stop-color="#F46362"/>
<stop offset="1" stop-color="#F26788"/>
</linearGradient>
<clipPath id="clip0">
<rect width="37" height="37" fill="white" transform="translate(13.3464 8.91943) rotate(6.87179)"/>
</clipPath>
</defs>
</svg>
