<svg width="283" height="115" viewBox="0 0 283 115" fill="none" xmlns="http://www.w3.org/2000/svg">
<g opacity="0.5" filter="url(#filter0_f)">
<path d="M263 49.1933C263 81.354 173.143 95 128.433 95C83.7223 95 21.7433 77.7944 21.7433 49.1933C2.44281 19.6728 148.269 20.0772 218.502 20.0772C263.212 20.0772 263 17.0325 263 49.1933Z" fill="white" fill-opacity="0.5"/>
</g>
<g opacity="0.3">
<line x1="16" y1="27.324" x2="272" y2="27.324" stroke="black"/>
<line x1="16" y1="37.9168" x2="272" y2="37.9168" stroke="black"/>
<line x1="16" y1="49.1328" x2="272" y2="49.1328" stroke="black"/>
<line x1="16" y1="59.7256" x2="272" y2="59.7256" stroke="black"/>
<line x1="16" y1="70.3185" x2="272" y2="70.3185" stroke="black"/>
</g>
<path fill-rule="evenodd" clip-rule="evenodd" d="M31.424 83.9466C32.099 84.0773 32.7943 84.0836 33.476 83.9652C36.392 83.467 38.3428 80.8449 37.8095 78.1544L36.635 72.3061C37.3843 71.8265 38.1335 71.3345 38.8693 70.8363L40.253 77.7371C41.0428 81.6733 38.1943 85.4911 33.9283 86.2198C30.047 86.88 24.8563 84.2268 24.8563 80.247C24.8563 77.9551 26.8745 76.0928 29.3585 76.0928C31.8425 76.0928 33.8608 77.9551 33.8608 80.247C33.8608 81.8414 32.8888 83.249 31.424 83.9466ZM35.2918 52.9801L37.3033 63.0261C36.5675 63.5369 35.825 64.0289 35.069 64.5209L32.531 51.8715C32.9428 51.7345 33.368 51.6847 33.8 51.8341C34.3468 52.0148 34.8598 52.4819 35.2918 52.9801ZM30.425 41.3023L31.0595 44.4725L31.478 44.3977C31.9843 44.3105 32.4973 44.2981 33.0103 44.3417L33.5773 44.3977L33.476 43.8808C33.1183 42.0871 32.8685 40.8601 32.5108 39.0664C35.7778 35.4541 39.4228 30.758 40.334 26.0682C41.792 18.5882 35.4065 13.861 28.4945 11.6127C27.8668 11.4071 27.2255 11.2203 26.5843 11.0521C25.4638 10.7656 24.4175 11.7061 24.701 12.7462L29.237 35.3856C28.67 36.2637 28.0558 37.117 27.428 37.9516C25.5515 40.4366 23.4455 42.8469 21.92 45.5312C20.2055 48.5394 19.4225 51.6037 20.5228 54.9233C21.029 56.443 21.8593 57.8506 22.7773 59.1896C23.756 60.6159 24.836 61.9923 25.8485 63.3998C26.9353 64.9133 27.941 66.4641 28.7375 68.127C29.6285 69.9955 30.209 71.92 30.4655 73.9441L30.5398 74.5483L31.1068 74.2306C32.4635 73.477 33.7933 72.6736 35.1028 71.8515C36.6418 70.8799 38.1605 69.8771 39.6455 68.8433C41.4005 67.6225 43.1353 66.3458 44.7823 64.988C45.4978 64.3964 46.1998 63.786 46.868 63.1507C47.4215 62.6213 47.9615 62.0608 48.434 61.4691C49.1225 60.6034 49.7165 59.638 50.2228 58.6727C50.81 57.5391 51.3028 56.3433 51.6605 55.1288C52.3355 52.812 52.5988 50.0716 51.4243 47.8481C50.594 46.2848 49.1968 45.251 47.4553 44.6406C43.8508 43.3701 40.172 44.9956 37.796 47.518C35.3053 45.4004 31.8425 44.1984 29.0345 46.6835C27.536 48.0163 26.9488 49.8411 27.1243 51.722C27.2728 53.3351 28.0085 55.079 29.2168 56.2686L30.1618 57.2028L29.9458 55.9385C29.6623 54.2631 29.858 51.6784 31.775 50.875C32.585 50.5387 33.422 50.4204 34.2658 50.7193C35.5078 51.149 36.4663 52.3635 37.1548 53.36L37.472 53.8209L37.8433 53.3974C38.876 52.2327 40.2935 51.0245 41.9068 50.6321C42.9193 50.383 43.9858 50.4826 44.816 51.1117C45.518 51.6411 45.8825 52.432 45.9568 53.2542C46.004 53.796 45.977 54.3441 45.8758 54.8797C45.3358 57.807 42.7303 60.373 40.388 62.2476C38.4035 63.8358 36.2638 65.1873 34.1173 66.57C33.4558 65.0067 32.639 63.5119 31.6805 62.0732C30.8098 60.7716 29.8378 59.5571 28.8185 58.355C27.9883 57.371 27.1108 56.3994 26.348 55.3717C25.7203 54.5309 25.1533 53.6279 24.863 52.6376C24.377 51.012 24.7415 49.4612 25.4705 47.9478C26.0105 46.8205 26.7395 45.743 27.5023 44.734C28.3933 43.5507 29.3923 42.4047 30.425 41.3023ZM31.127 32.1781L27.5428 14.2783C30.2428 15.1939 32.7808 16.6512 33.7393 19.3044C34.2658 20.7618 34.2523 22.35 34.0768 23.8572C33.7325 26.6848 32.5175 29.5934 31.127 32.1781Z" fill="url(#paint0_linear)"/>
<path fill-rule="evenodd" clip-rule="evenodd" d="M253.371 39.3093H250.658V27.4571H253.574V34.8188L259.446 27.4571H262.166V39.3093H259.244V31.9912L253.371 39.3093Z" fill="black"/>
<path fill-rule="evenodd" clip-rule="evenodd" d="M233.972 39.3093V27.4571H236.894V32.2466L241.133 27.4571H244.799L239.702 33.2431L245.17 39.3093H241.498L236.894 34.2085V39.3093H233.972Z" fill="black"/>
<path fill-rule="evenodd" clip-rule="evenodd" d="M218.96 39.3093H216.246V27.4571H219.162V34.8188L225.035 27.4571H227.755V39.3093H224.832V31.9912L218.96 39.3093Z" fill="black"/>
<path fill-rule="evenodd" clip-rule="evenodd" d="M204.974 39.5273C203.678 39.5273 202.557 39.2657 201.605 38.7425C200.66 38.2194 199.958 37.4844 199.506 36.5502L202.334 35.5848C202.773 36.5004 203.644 36.955 204.94 36.955C205.635 36.955 206.189 36.8367 206.6 36.5938C207.012 36.3509 207.215 36.027 207.215 35.6222C207.215 35.2921 207.073 35.0118 206.789 34.7689C206.506 34.5261 206.168 34.4077 205.763 34.4077H203.36V32.122H205.709C206.074 32.122 206.378 32.0223 206.621 31.8168C206.857 31.6113 206.978 31.3621 206.978 31.057C206.978 30.6833 206.789 30.3843 206.418 30.1601C206.047 29.9359 205.554 29.8238 204.94 29.8238C203.718 29.8238 202.881 30.2784 202.442 31.194L199.614 30.2286C200.066 29.2944 200.755 28.5595 201.68 28.0363C202.604 27.5131 203.705 27.2516 204.974 27.2516C206.445 27.2516 207.64 27.5816 208.571 28.2356C209.523 28.8771 210.002 29.7055 210.002 30.7082C210.002 31.7358 209.523 32.5829 208.571 33.2493C209.685 33.9281 210.239 34.8375 210.239 35.9772C210.239 37.0173 209.746 37.8768 208.754 38.5494C207.755 39.1972 206.492 39.5273 204.974 39.5273Z" fill="black"/>
<path fill-rule="evenodd" clip-rule="evenodd" d="M187.376 35.9399L182.314 27.4571H185.527L188.956 33.3178L191.966 27.4571H195.085L190.94 35.4852C190.252 36.8181 189.489 37.7896 188.639 38.4C187.788 39.0104 186.776 39.3155 185.601 39.3155H184.406V36.843H185.358C186.161 36.8367 186.836 36.5378 187.376 35.9399Z" fill="black"/>
<path fill-rule="evenodd" clip-rule="evenodd" d="M165.351 39.3093H162.469V27.4571H165.351L169.664 34.5012L173.957 27.4571H176.84V39.3093H173.957V32.4646L170.616 38.0388H168.692L165.351 32.4646V39.3093Z" fill="black"/>
<path fill-rule="evenodd" clip-rule="evenodd" d="M143.015 34.906L141.402 31.2625L139.789 34.906H143.015ZM137.818 39.3093H134.774L140.187 27.4571H142.59L147.983 39.3093H144.953L144.068 37.3101H138.689L137.818 39.3093Z" fill="black"/>
<path fill-rule="evenodd" clip-rule="evenodd" d="M117.98 39.3093H117.392V36.8367H117.98C118.54 36.8367 118.958 36.5814 119.228 36.0769C119.512 35.56 119.654 34.6008 119.654 33.2119V27.4571H129.306V39.3093H126.39V29.9297H122.556V33.2119C122.556 35.2423 122.158 36.7682 121.355 37.7834C120.545 38.7986 119.424 39.3093 117.98 39.3093Z" fill="black"/>
<path fill-rule="evenodd" clip-rule="evenodd" d="M105.884 36.9551C106.937 36.9551 107.821 36.6188 108.543 35.9399C109.252 35.2486 109.61 34.4015 109.61 33.3801C109.61 32.3525 109.252 31.5054 108.543 30.839C107.834 30.1477 106.943 29.8051 105.884 29.8051C104.831 29.8051 103.953 30.1477 103.238 30.839C102.529 31.5054 102.171 32.3525 102.171 33.3801C102.171 34.3953 102.529 35.2486 103.238 35.9399C103.953 36.6188 104.837 36.9551 105.884 36.9551ZM101.078 37.7647C99.7951 36.6001 99.1471 35.1427 99.1471 33.3801C99.1471 31.6175 99.7883 30.1539 101.078 28.9955C102.374 27.8184 103.98 27.2329 105.884 27.2329C107.794 27.2329 109.394 27.8184 110.69 28.9955C111.986 30.1601 112.634 31.6175 112.634 33.3801C112.634 35.1427 111.986 36.6063 110.69 37.7647C109.394 38.9419 107.787 39.5273 105.884 39.5273C103.98 39.5273 102.374 38.9419 101.078 37.7647Z" fill="black"/>
<path fill-rule="evenodd" clip-rule="evenodd" d="M83.5479 39.3093V27.4571H86.4706V32.2466L90.7096 27.4571H94.3816L89.2786 33.2431L94.7461 39.3093H91.0741L86.4706 34.2085V39.3093H83.5479Z" fill="black"/>
<path fill-rule="evenodd" clip-rule="evenodd" d="M60.2064 39.3093V27.4571H63.1224V36.8367H67.1994V27.4571H70.1154V36.8367H74.4084V27.4571H77.3311V39.3093H60.2064Z" fill="black"/>
<path d="M76.734 58.76L83.772 71H74.728L70.172 62.398H67.928V71H59.904V47.2H67.928V56.074H70.376L75.442 47.2H83.806L76.734 58.76ZM101.66 47.2C103.859 47.2 105.774 47.5627 107.406 48.288C109.038 49.0133 110.296 50.056 111.18 51.416C112.064 52.776 112.506 54.3627 112.506 56.176C112.506 57.9893 112.064 59.576 111.18 60.936C110.296 62.296 109.038 63.3387 107.406 64.064C105.774 64.7893 103.859 65.152 101.66 65.152H98.226V71H90.202V47.2H101.66ZM101.15 58.964C102.238 58.964 103.054 58.726 103.598 58.25C104.142 57.7513 104.414 57.06 104.414 56.176C104.414 55.292 104.142 54.612 103.598 54.136C103.054 53.6373 102.238 53.388 101.15 53.388H98.226V58.964H101.15ZM139.486 64.948V71H119.698V47.2H139.044V53.252H127.586V56.04H137.65V61.82H127.586V64.948H139.486ZM164.297 66.852H155.253L153.655 71H145.495L155.899 47.2H163.787L174.191 71H165.895L164.297 66.852ZM162.087 61.072L159.775 55.088L157.463 61.072H162.087ZM200.217 53.422H193.247V71H185.359V53.422H178.389V47.2H200.217V53.422ZM207.623 47.2H215.511V59.576L223.705 47.2H231.253V71H223.365V58.658L215.205 71H207.623V47.2ZM258.532 58.522C259.87 58.998 260.89 59.712 261.592 60.664C262.295 61.5933 262.646 62.738 262.646 64.098C262.646 66.2287 261.796 67.9173 260.096 69.164C258.419 70.388 256.039 71 252.956 71H240.24V47.2H252.31C255.257 47.2 257.535 47.744 259.144 48.832C260.776 49.92 261.592 51.45 261.592 53.422C261.592 54.5553 261.32 55.5527 260.776 56.414C260.255 57.2753 259.507 57.978 258.532 58.522ZM248.128 56.346H251.528C252.843 56.346 253.5 55.768 253.5 54.612C253.5 53.4107 252.843 52.81 251.528 52.81H248.128V56.346ZM252.582 65.39C253.897 65.39 254.554 64.7553 254.554 63.486C254.554 62.262 253.897 61.65 252.582 61.65H248.128V65.39H252.582Z" fill="url(#paint1_linear)"/>
<defs>
<filter id="filter0_f" x="0" y="0" width="283" height="115" filterUnits="userSpaceOnUse" color-interpolation-filters="sRGB">
<feFlood flood-opacity="0" result="BackgroundImageFix"/>
<feBlend mode="normal" in="SourceGraphic" in2="BackgroundImageFix" result="shape"/>
<feGaussianBlur stdDeviation="10" result="effect1_foregroundBlur"/>
</filter>
<linearGradient id="paint0_linear" x1="34.5138" y1="68.3871" x2="18.8063" y2="66.909" gradientUnits="userSpaceOnUse">
<stop stop-color="#F46362"/>
<stop offset="1" stop-color="#F26788"/>
</linearGradient>
<linearGradient id="paint1_linear" x1="150.7" y1="69.2381" x2="105.094" y2="18.8358" gradientUnits="userSpaceOnUse">
<stop stop-color="#F46362"/>
<stop offset="1" stop-color="#F26788"/>
</linearGradient>
</defs>
</svg>
