<svg width="48" height="48" viewBox="0 0 48 48" fill="none" xmlns="http://www.w3.org/2000/svg">
<g clip-path="url(#clip0)">
<path d="M43.1223 13.2843L43.545 12.9271C43.8418 12.6764 43.8791 12.2325 43.6285 11.9357C43.3776 11.6389 42.9336 11.6015 42.637 11.8523L42.2142 12.2094L41.9442 11.8898C41.5034 11.3681 40.7202 11.3023 40.1989 11.7431L36.8105 14.6055C36.0035 15.2874 35.7689 16.3993 36.1585 17.3254L30.7727 21.8754L29.3853 15.0248C29.3082 14.6439 28.9372 14.3975 28.5561 14.4749C28.1752 14.552 27.929 14.9232 28.0062 15.304L29.5468 22.911L28.3209 23.9466L24.7635 6.38128H26.1881L27.4115 12.3667C27.4796 12.6999 27.7727 12.9296 28.1 12.9296C28.1467 12.9296 28.1941 12.9249 28.2417 12.9152C28.6224 12.8374 28.8679 12.4657 28.7901 12.085L26.7101 1.90851C26.4861 0.802506 25.5044 -0.000211368 24.376 -0.000211368H20.2795C19.891 -0.000211368 19.576 0.314797 19.576 0.703351C19.576 1.0919 19.891 1.40691 20.2795 1.40691H24.376C24.8377 1.40691 25.2392 1.73534 25.3313 2.18909L25.9005 4.97416H13.8418L14.4076 2.18777C14.4992 1.73524 14.9008 1.40682 15.3626 1.40682H17.2812C17.6698 1.40682 17.9848 1.09181 17.9848 0.703257C17.9848 0.314703 17.6698 -0.000305176 17.2812 -0.000305176H15.3626C14.2341 -0.000305176 13.2525 0.802412 13.0286 1.90804L6.93604 31.9125C6.92516 31.9499 6.91718 31.9884 6.91259 32.028L5.82357 37.3913C5.74627 37.7722 5.99223 38.1435 6.373 38.2208C6.42028 38.2304 6.46737 38.235 6.51371 38.235C6.84139 38.235 7.13472 38.0048 7.20245 37.6713L8.18885 32.8135H31.5522L34.1063 45.4249C34.1645 45.7126 34.0914 46.0079 33.9055 46.2351C33.7198 46.4623 33.4448 46.5927 33.1513 46.5927H6.58717C6.29364 46.5927 6.01878 46.4624 5.83295 46.2352C5.64721 46.008 5.57404 45.7126 5.6322 45.425L6.59533 40.6694C6.67244 40.2886 6.42628 39.9174 6.04542 39.8402C5.66447 39.763 5.29327 40.0093 5.21625 40.3902L4.25312 45.1458C4.11072 45.8489 4.28952 46.5706 4.74365 47.126C5.19777 47.6813 5.86972 47.9998 6.58707 47.9998H33.1513C33.8687 47.9998 34.5407 47.6812 34.9948 47.1259C35.449 46.5705 35.6278 45.8488 35.4854 45.1457L32.8175 31.9725C32.817 31.9697 32.8164 31.967 32.8159 31.9643L31.0912 23.4483L37.066 18.4007C37.3843 18.6038 37.749 18.7282 38.1359 18.7608C38.2035 18.7665 38.2708 18.7692 38.3378 18.7692C38.8941 18.7692 39.4272 18.5749 39.857 18.2117L43.2453 15.3493C43.498 15.1358 43.6525 14.8366 43.6803 14.5069C43.7079 14.1771 43.6056 13.8564 43.3922 13.6038L43.1223 13.2843ZM27.095 24.9825L22.5264 28.8421V6.38128H23.3279L27.095 24.9825ZM17.306 6.38128V31.4064H11.3427L16.4108 6.38128H17.306ZM21.1193 6.38128V8.40942H18.7131V6.38128H21.1193ZM18.7131 16.0957V13.6597H21.1193V16.0957H18.7131ZM21.1193 17.5028V19.9388H18.7131V17.5028H21.1193ZM18.7131 21.346H21.1193V23.782H18.7131V21.346ZM21.1193 12.2526H18.7131V9.81654H21.1193V12.2526ZM18.7131 25.1891H21.1193V27.6251H18.7131V25.1891ZM18.7131 29.0322H21.1193V30.0308L19.491 31.4064H18.7131V29.0322ZM22.5264 30.6841L27.4134 26.5554L28.3959 31.4065H22.5264V30.6841ZM13.5561 6.38128H14.975L9.90695 31.4064H8.47459L13.5561 6.38128ZM31.2673 31.4064H29.8316L28.6394 25.5197L29.8653 24.484L31.2673 31.4064ZM38.949 17.137C38.7545 17.3013 38.5064 17.38 38.2539 17.3586C38.0002 17.3372 37.7699 17.2184 37.6056 17.0239C37.6055 17.0238 37.6055 17.0238 37.6054 17.0237C37.2664 16.6221 37.3172 16.0196 37.7186 15.6805L40.9781 12.9268L41.593 13.6546C41.5931 13.6548 41.5932 13.6549 41.5934 13.6551C41.5935 13.6552 41.5937 13.6554 41.5938 13.6555L42.2087 14.3833L38.949 17.137Z" fill="#D28584"/>
</g>
<defs>
<clipPath id="clip0">
<rect width="48" height="48" fill="white"/>
</clipPath>
</defs>
</svg>
