<svg width="48" height="48" viewBox="0 0 48 48" fill="none" xmlns="http://www.w3.org/2000/svg">
<g clip-path="url(#clip0)">
<path d="M26.9841 21.0176C26.615 20.6485 26.0166 20.6481 25.6471 21.0173L21.0167 25.6455C20.6476 26.0146 20.6472 26.6134 21.0164 26.9829C21.2009 27.1674 21.443 27.2597 21.6851 27.2597C21.9268 27.2597 22.1688 27.1674 22.3534 26.9829L26.9838 22.3547C27.3533 21.9855 27.3533 21.3868 26.9841 21.0176Z" fill="#A56BAE"/>
<path d="M44.3806 28.471C42.8766 27.4222 41.0199 26.796 39.4133 26.796C38.8911 26.796 38.4678 27.2193 38.4678 27.7415V37.8691C37.5365 37.1758 36.3327 36.7562 35.0191 36.7562C32.0733 36.7562 29.6769 38.8586 29.6769 41.4429C29.6769 44.0273 32.0733 46.1297 35.0191 46.1297C37.9631 46.1297 40.3585 44.0273 40.3585 41.4429V28.7772C42.6554 29.1968 45.2049 31.0136 45.2049 32.8663V36.4852C45.2049 37.0074 45.6283 37.4307 46.1501 37.4307C46.6723 37.4307 47.0957 37.0074 47.0957 36.4852V32.8663C47.0957 31.2531 46.1315 29.692 44.3806 28.471ZM35.0191 44.239C33.1163 44.239 31.568 42.9847 31.568 41.4429C31.568 39.9012 33.1163 38.6469 35.0191 38.6469C36.9209 38.6469 38.4678 39.9012 38.4678 41.4429C38.4678 42.9847 36.9209 44.239 35.0191 44.239Z" fill="#A56BAE"/>
<path d="M4.21322 21.6398C6.47347 21.6398 8.3122 20.0116 8.3122 18.0099C8.3122 17.9543 8.31001 17.899 8.30708 17.8437C8.31037 17.8129 8.3122 17.7814 8.3122 17.7495V9.78999C8.40266 9.77973 8.49384 9.76325 8.58466 9.73872L18.822 7.01485V10.2617C18.1845 9.89912 17.4268 9.68781 16.6142 9.68781C14.3539 9.68781 12.5156 11.3152 12.5156 13.3151C12.5156 15.3168 14.3539 16.9453 16.6142 16.9453C18.8744 16.9453 20.7128 15.3168 20.7128 13.3151V2.23216C20.7128 1.65501 20.4692 1.13646 20.0441 0.809804C19.6277 0.490469 19.0817 0.389762 18.547 0.532217L8.0987 3.30955C8.09834 3.30991 8.09797 3.30991 8.0976 3.30991C7.1418 3.56553 6.4211 4.51987 6.4211 5.52987V14.9539C5.78316 14.5914 5.02584 14.3797 4.21322 14.3797C1.95298 14.3797 0.114243 16.0082 0.114243 18.0099C0.114243 20.0116 1.95298 21.6398 4.21322 21.6398ZM16.6142 15.0542C15.3969 15.0542 14.4063 14.2742 14.4063 13.3155C14.4063 12.3578 15.3969 11.5789 16.6142 11.5789C17.8318 11.5789 18.822 12.3578 18.822 13.3155C18.822 14.2742 17.8318 15.0542 16.6142 15.0542ZM8.31184 5.52987C8.31184 5.37167 8.4704 5.16806 8.58503 5.13693L18.822 2.416V4.74143C18.822 4.89413 18.6598 5.10141 18.5467 5.13144L8.31184 7.85457V5.52987ZM4.21322 16.2708C5.40999 16.2708 6.4211 17.0673 6.4211 18.0099C6.4211 18.9525 5.40999 19.749 4.21322 19.749C3.01645 19.749 2.00535 18.9525 2.00535 18.0099C2.00535 17.0673 3.01645 16.2708 4.21322 16.2708Z" fill="#A56BAE"/>
<path d="M35.8655 22.4025C36.2394 22.441 36.614 22.46 36.9879 22.46C38.9109 22.46 40.8122 21.9554 42.4755 21.0003C42.8088 21.1124 43.1563 21.1691 43.5042 21.1691C44.3253 21.1691 45.1459 20.8571 45.7707 20.2327C46.3746 19.6311 46.7075 18.8272 46.7082 17.9696C46.7086 17.6136 46.6507 17.2672 46.5408 16.9402C47.6816 14.9535 48.1785 12.6273 47.9423 10.3319C47.6845 7.82924 46.561 5.46939 44.7779 3.68742C42.9945 1.90618 40.6342 0.783745 38.1316 0.526667C35.8358 0.290462 33.5074 0.787774 31.5193 1.92852C30.4013 1.55278 29.1159 1.80877 28.2271 2.69719C27.6228 3.3007 27.2903 4.10563 27.2903 4.96329C27.2903 5.31742 27.3482 5.66275 27.4573 5.98868C26.3162 7.975 25.8189 10.3012 26.0555 12.5969C26.0899 12.9305 26.1408 13.2616 26.2052 13.5893L5.36024 35.5267C3.95473 37.0073 3.96169 39.2778 5.37782 40.6965L6.20289 41.5205C5.22474 45.4364 1.10049 45.6345 0.914459 45.6414C0.394075 45.6583 -0.0149803 46.093 3.42446e-05 46.6137C0.0150488 47.1264 0.435091 47.5318 0.944488 47.5318C0.954009 47.5318 0.963165 47.5318 0.972686 47.5315C1.03567 47.5296 2.53603 47.4776 4.15614 46.7108C5.38954 46.1267 6.88513 45.0317 7.70215 43.0176L7.75415 43.0696C8.46533 43.7822 9.3922 44.1389 10.3264 44.1389C11.2529 44.1389 12.1864 43.7884 12.9247 43.0864L20.9849 35.4125C21.3628 35.0525 21.3779 34.4541 21.0175 34.0758C20.6575 33.6975 20.0591 33.6829 19.6809 34.0429L11.6213 41.7164C10.8885 42.4129 9.77782 42.4203 9.09118 41.7325L6.71485 39.3599C6.02894 38.6725 6.03626 37.5607 6.73096 36.829L26.8366 15.6701C27.3866 16.9962 28.1934 18.2149 29.2206 19.2414C30.246 20.2664 31.464 21.0721 32.7897 21.6214L27.0065 27.1116C27.001 27.1168 26.9959 27.1219 26.9904 27.127L25.8562 28.2557C25.486 28.6237 25.4845 29.2225 25.8526 29.5927C26.0375 29.7784 26.2803 29.8714 26.5231 29.8714C26.7641 29.8714 27.0054 29.7798 27.19 29.596L28.3161 28.4754L34.8716 22.2524C35.1997 22.3172 35.5311 22.3681 35.8655 22.4025ZM43.4412 5.02481C46.1336 7.71572 46.829 11.8301 45.2961 15.2248L33.2357 3.17289C36.6319 1.64067 40.7481 2.33537 43.4412 5.02481ZM29.5637 4.03458C29.8201 3.77824 30.1566 3.65043 30.4932 3.65043C30.8301 3.65043 31.1666 3.77824 31.423 4.03458L44.4351 17.0376C44.682 17.2844 44.8178 17.6147 44.8175 17.9681C44.8171 18.32 44.6816 18.6485 44.4348 18.8943C43.9217 19.4073 43.0864 19.4073 42.573 18.8943L29.5637 5.89163C29.3169 5.64481 29.181 5.31522 29.181 4.96292C29.181 4.61063 29.3169 4.28104 29.5637 4.03458ZM28.702 7.70363L40.7602 19.7563C37.3647 21.2896 33.2496 20.5949 30.5573 17.904C27.8634 15.2117 27.168 11.0977 28.702 7.70363Z" fill="#A56BAE"/>
<path d="M24.0336 31.0857C23.6326 30.7518 23.0364 30.8056 22.702 31.207L22.6889 31.2227C22.3545 31.6241 22.4087 32.2203 22.8097 32.5543C22.9866 32.7018 23.2012 32.7736 23.4147 32.7736C23.6853 32.7736 23.9545 32.6575 24.1413 32.4334L24.1548 32.4173C24.4888 32.0163 24.4346 31.4201 24.0336 31.0857Z" fill="#A56BAE"/>
</g>
<defs>
<clipPath id="clip0">
<rect width="48" height="48" fill="white"/>
</clipPath>
</defs>
</svg>
