<svg width="48" height="48" viewBox="0 0 48 48" fill="none" xmlns="http://www.w3.org/2000/svg">
<path d="M22 36C22 37.104 22.896 38 24 38C25.104 38 26 37.104 26 36V12C26 10.896 25.104 10 24 10C22.896 10 22 10.896 22 12V36Z" fill="#ABAB73"/>
<path d="M2 12C0.895996 12 0 12.896 0 14V34C0 35.104 0.895996 36 2 36C3.104 36 4 35.104 4 34V14C4 12.896 3.104 12 2 12Z" fill="#ABAB73"/>
<path d="M19 32V16C19 14.896 18.104 14 17 14C15.896 14 15 14.896 15 16V32C15 33.104 15.896 34 17 34C18.104 34 19 33.104 19 32Z" fill="#ABAB73"/>
<path d="M10 30C11.104 30 12 29.104 12 28V20C12 18.896 11.104 18 10 18C8.896 18 8 18.896 8 20V28C8 29.104 8.896 30 10 30Z" fill="#ABAB73"/>
<path d="M33 32V16C33 14.896 32.104 14 31 14C29.896 14 29 14.896 29 16V32C29 33.104 29.896 34 31 34C32.104 34 33 33.104 33 32Z" fill="#ABAB73"/>
<path d="M46 12C44.896 12 44 12.896 44 14V34C44 35.104 44.896 36 46 36C47.104 36 48 35.104 48 34V14C48 12.896 47.104 12 46 12Z" fill="#ABAB73"/>
<path d="M38 18C36.896 18 36 18.896 36 20V28C36 29.104 36.896 30 38 30C39.104 30 40 29.104 40 28V20C40 18.896 39.104 18 38 18Z" fill="#ABAB73"/>
<path d="M22 46C22 47.104 22.896 48 24 48C25.104 48 26 47.104 26 46V44C26 42.896 25.104 42 24 42C22.896 42 22 42.896 22 44V46Z" fill="#ABAB73"/>
<path d="M24 6C25.104 6 26 5.104 26 4V2C26 0.895996 25.104 0 24 0C22.896 0 22 0.895996 22 2V4C22 5.104 22.896 6 24 6Z" fill="#ABAB73"/>
</svg>
