<svg width="23" height="12" viewBox="0 0 23 12" fill="none" xmlns="http://www.w3.org/2000/svg">
<path d="M22.1546 5.33639C22.1544 5.33611 22.1541 5.33578 22.1538 5.3355L17.7153 0.460497C17.3828 0.0952938 16.8449 0.0966529 16.5139 0.463684C16.183 0.830668 16.1843 1.42425 16.5168 1.7895L19.4968 5.0625H1.50717C1.03802 5.0625 0.657715 5.48222 0.657715 6C0.657715 6.51778 1.03802 6.9375 1.50717 6.9375H19.4968L16.5168 10.2105C16.1843 10.5757 16.183 11.1693 16.514 11.5363C16.845 11.9034 17.3828 11.9047 17.7153 11.5395L22.1539 6.6645C22.1541 6.66421 22.1544 6.66389 22.1547 6.66361C22.4873 6.29714 22.4863 5.70164 22.1546 5.33639Z" fill="white"/>
</svg>
