<svg width="21" height="10" viewBox="0 0 21 10" fill="none" xmlns="http://www.w3.org/2000/svg">
<path d="M20.7594 4.50229C20.7592 4.50208 20.759 4.50183 20.7587 4.50162L16.4724 0.845373C16.1513 0.57147 15.6319 0.57249 15.3122 0.847763C14.9926 1.123 14.9939 1.56818 15.315 1.84212L18.1928 4.29687H0.820312C0.367254 4.29687 0 4.61166 0 5C0 5.38833 0.367254 5.70312 0.820312 5.70312H18.1928L15.315 8.15787C14.9939 8.43181 14.9927 8.87699 15.3123 9.15223C15.6319 9.42754 16.1513 9.42849 16.4724 9.15462L20.7587 5.49837C20.759 5.49816 20.7592 5.49791 20.7594 5.4977C21.0807 5.22285 21.0797 4.77623 20.7594 4.50229Z" fill="black"/>
</svg>
