<svg width="43" height="43" viewBox="0 0 43 43" fill="none" xmlns="http://www.w3.org/2000/svg">
<g clip-path="url(#clip0)">
<path d="M34.8985 22.224C34.6486 21.9741 34.6266 21.7185 34.6239 21.4509C34.6184 20.9332 35.0337 20.5091 35.5514 20.5036C36.0691 20.4982 36.4932 20.9134 36.4987 21.4311C36.4992 21.4778 36.4992 21.524 36.4987 21.5708C36.4901 22.4019 35.4812 22.8068 34.8985 22.224Z" fill="white"/>
<path d="M31.7816 20.627L15.5411 14.3297C14.7905 14.0386 14.0438 14.7713 14.3226 15.5278L16.5232 21.5011L14.3226 27.4744C14.0442 28.2297 14.7894 28.964 15.5411 28.6725L31.7816 22.3751C32.578 22.0664 32.5778 20.9357 31.7816 20.627ZM16.7999 26.1734L18.1759 22.4386H20.1738C20.6915 22.4386 21.1112 22.0188 21.1112 21.5011C21.1112 20.9833 20.6915 20.5637 20.1737 20.5637L18.1759 20.5637L16.7999 16.8288L28.8496 21.5011L16.7999 26.1734Z" fill="white"/>
<path d="M10.8947 32.1083C5.03302 26.2466 5.03219 16.7588 10.8947 10.8963C14.2625 7.52851 18.8848 6.05696 23.3757 6.6202C29.8731 7.4343 34.7793 12.2673 36.1225 18.15C36.2377 18.6547 35.922 19.1573 35.4173 19.2726C34.9126 19.3878 34.4099 19.072 34.2946 18.5673C31.997 8.50476 19.4935 4.949 12.2205 12.222C7.10331 17.3392 7.10331 25.6654 12.2205 30.7826C17.2569 35.819 25.5838 35.9799 30.781 30.7826C32.5421 29.0215 33.7603 26.8131 34.304 24.3958C34.4176 23.8907 34.9192 23.5733 35.4243 23.6869C35.9295 23.8005 36.2468 24.3022 36.1332 24.8072C34.3621 32.6815 26.5218 37.94 18.3103 36.1602C15.5007 35.5511 12.9364 34.15 10.8947 32.1083Z" fill="white"/>
</g>
<defs>
<clipPath id="clip0">
<rect width="30" height="30" fill="white" transform="translate(21.5 0.287109) rotate(45)"/>
</clipPath>
</defs>
</svg>
