<svg width="21" height="39" viewBox="0 0 21 39" fill="none" xmlns="http://www.w3.org/2000/svg">
<path d="M19.9633 8.40834L11.6352 0.448072C11.6347 0.447615 11.6341 0.447234 11.6337 0.446701C11.0076 -0.149877 9.9903 -0.147973 9.36633 0.446853C9.36585 0.44731 9.36529 0.447691 9.36481 0.448224L1.03668 8.40849C0.412794 9.00484 0.415115 9.96948 1.04213 10.563C1.66906 11.1565 2.68309 11.1543 3.30706 10.5579L8.89843 5.21338V37.4766C8.89843 38.318 9.61545 39 10.5 39C11.3845 39 12.1016 38.318 12.1016 37.4766V5.21338L17.6929 10.5578C18.3169 11.1541 19.3309 11.1564 19.9579 10.5629C20.585 9.96925 20.5871 9.00461 19.9633 8.40834Z" fill="#BDBBBB"/>
</svg>
